<svg width="75" height="75" viewBox="0 0 75 75" fill="none" xmlns="http://www.w3.org/2000/svg">
<path d="M37.7714 54.1798C37.7714 56.1007 37.7714 73.6109 37.7714 73.6109H62.316C64.4115 73.6109 65.3841 72.4637 65.3841 70.5429L65.3841 42.3735C65.3841 41.269 64.4886 40.3735 63.3841 40.3735H39.8168L39.8168 56.2252L37.7714 54.1798ZM39.8168 20.2085H69.0075C71.103 20.2085 72.5 21.4891 72.5 23.41L72.5 33.0142C72.5 34.9351 71.0589 36.2828 68.9635 36.2828H39.8168L39.8168 20.2085ZM37.7714 7.64748C39.5177 3.48563 43.8618 1 48.402 1C52.2437 1 56.0854 2.60071 58.1809 5.80214C60.2764 8.68342 60.6449 12.8188 59.2479 16.3403C57.8859 19.9259 52.593 23.41 48.0528 23.41H37.7714L37.7714 7.64748ZM44.2111 9.96399L41.0678 17.0071H48.0528C49.799 17.0071 51.3706 15.7265 52.2437 14.446L52.9073 12.9093C53.2565 11.6287 52.9422 10.6043 52.2437 9.3237C51.5452 8.04313 50.1482 7.40285 48.402 7.40285C46.6558 7.40285 44.9095 8.36327 44.2111 9.96399Z" fill="#808ADF"/>
<path d="M37.7714 54.1798C37.7714 56.1007 37.7714 73.6109 37.7714 73.6109H62.316C64.4115 73.6109 65.3841 72.4637 65.3841 70.5429L65.3841 42.3735C65.3841 41.269 64.4886 40.3735 63.3841 40.3735H39.8168L39.8168 56.2252L37.7714 54.1798ZM39.8168 20.2085H69.0075C71.103 20.2085 72.5 21.4891 72.5 23.41L72.5 33.0142C72.5 34.9351 71.0589 36.2828 68.9635 36.2828H39.8168L39.8168 20.2085ZM37.7714 7.64748C39.5177 3.48563 43.8618 1 48.402 1C52.2437 1 56.0854 2.60071 58.1809 5.80214C60.2764 8.68342 60.6449 12.8188 59.2479 16.3403C57.8859 19.9259 52.593 23.41 48.0528 23.41H37.7714L37.7714 7.64748ZM44.2111 9.96399L41.0678 17.0071H48.0528C49.799 17.0071 51.3706 15.7265 52.2437 14.446L52.9073 12.9093C53.2565 11.6287 52.9422 10.6043 52.2437 9.3237C51.5452 8.04313 50.1482 7.40285 48.402 7.40285C46.6558 7.40285 44.9095 8.36327 44.2111 9.96399Z" fill="#808ADF"/>
<path d="M37.7714 54.1798C37.7714 56.1007 37.7714 73.6109 37.7714 73.6109H13.2269C11.1314 73.6109 10.1588 72.4637 10.1588 70.5429L10.1588 42.3735C10.1588 41.269 11.0543 40.3735 12.1588 40.3735H35.7261L35.7261 56.2252L37.7714 54.1798ZM35.7261 20.2085H6.49246C4.39699 20.2085 3 21.4891 3 23.41L3 33.0142C3 34.9351 4.44043 36.2828 6.53591 36.2828H35.7261L35.7261 20.2085ZM37.7714 7.64748C36.0252 3.48563 31.6382 1 27.098 1C23.2563 1 19.4146 2.60071 17.3191 5.80214C15.2236 8.68342 14.898 12.8188 16.295 16.3403C17.657 19.9259 22.907 23.41 27.4472 23.41H37.7714L37.7714 7.64748ZM31.289 9.96399L34.4322 17.0071H27.4472C25.701 17.0071 24.1294 15.7265 23.2563 14.446L22.5927 12.9093C22.2435 11.6287 22.5578 10.6043 23.2563 9.3237C23.9548 8.04313 25.3518 7.40285 27.098 7.40285C28.8442 7.40285 30.5905 8.36327 31.289 9.96399Z" fill="#4D5BF9"/>
<path d="M37.7714 54.1798C37.7714 56.1007 37.7714 73.6109 37.7714 73.6109H13.2269C11.1314 73.6109 10.1588 72.4637 10.1588 70.5429L10.1588 42.3735C10.1588 41.269 11.0543 40.3735 12.1588 40.3735H35.7261L35.7261 56.2252L37.7714 54.1798ZM35.7261 20.2085H6.49246C4.39699 20.2085 3 21.4891 3 23.41L3 33.0142C3 34.9351 4.44043 36.2828 6.53591 36.2828H35.7261L35.7261 20.2085ZM37.7714 7.64748C36.0252 3.48563 31.6382 1 27.098 1C23.2563 1 19.4146 2.60071 17.3191 5.80214C15.2236 8.68342 14.898 12.8188 16.295 16.3403C17.657 19.9259 22.907 23.41 27.4472 23.41H37.7714L37.7714 7.64748ZM31.289 9.96399L34.4322 17.0071H27.4472C25.701 17.0071 24.1294 15.7265 23.2563 14.446L22.5927 12.9093C22.2435 11.6287 22.5578 10.6043 23.2563 9.3237C23.9548 8.04313 25.3518 7.40285 27.098 7.40285C28.8442 7.40285 30.5905 8.36327 31.289 9.96399Z" fill="#4D5BF9"/>
</svg>
