<svg width="71" height="73" viewBox="0 0 71 73" fill="none" xmlns="http://www.w3.org/2000/svg">
<path d="M36 53C36 54.9209 36 73 36 73H60C62.0955 73 64 70.9209 64 69L64 42C64 40.8954 63.1046 40 62 40H39L39 56L36 53ZM39 19.2085H67.0075C69.103 19.2085 71 20.4891 71 22.41V27.5L71 32C71 33.9209 69.103 35 67.0075 35H39L39 27L39 19.2085ZM35.7714 6.64748C37.5177 2.48563 41.8618 0 46.402 0C50.2437 0 54.0854 1.60071 56.1809 4.80213C58.2764 7.68342 58.6449 11.8188 57.2479 15.3403C55.8859 18.9259 50.593 22.41 46.0528 22.41H35.7714L35.7714 6.64748ZM42.2111 8.96399L39.0678 16.0071H46.0528C47.799 16.0071 49.3706 14.7265 50.2437 13.446L50.9073 11.9093C51.2565 10.6287 50.9422 9.60427 50.2437 8.3237C49.5452 7.04313 48.1482 6.40285 46.402 6.40285C44.6558 6.40285 42.9095 7.36327 42.2111 8.96399Z" fill="#808ADF"/>
<path d="M36 53C36 54.9209 36 73 36 73H60C62.0955 73 64 70.9209 64 69L64 42C64 40.8954 63.1046 40 62 40H39L39 56L36 53ZM39 19.2085H67.0075C69.103 19.2085 71 20.4891 71 22.41V27.5L71 32C71 33.9209 69.103 35 67.0075 35H39L39 27L39 19.2085ZM35.7714 6.64748C37.5177 2.48563 41.8618 0 46.402 0C50.2437 0 54.0854 1.60071 56.1809 4.80213C58.2764 7.68342 58.6449 11.8188 57.2479 15.3403C55.8859 18.9259 50.593 22.41 46.0528 22.41H35.7714L35.7714 6.64748ZM42.2111 8.96399L39.0678 16.0071H46.0528C47.799 16.0071 49.3706 14.7265 50.2437 13.446L50.9073 11.9093C51.2565 10.6287 50.9422 9.60427 50.2437 8.3237C49.5452 7.04313 48.1482 6.40285 46.402 6.40285C44.6558 6.40285 42.9095 7.36327 42.2111 8.96399Z" fill="#808ADF"/>
<path d="M36 53C36 54.9209 36 73 36 73H12C9.90452 73 8 70.9209 8 69L8 42C8 40.8954 8.89543 40 10 40H33L33 56L36 53ZM33 19.2085H4.49246C2.39699 19.2085 -3.57774e-09 20.5791 0 22.5L0 27L0 32C3.57774e-09 33.9209 2.39699 35 4.49246 35H33L33 27L33 19.2085ZM35.7714 6.64748C34.0252 2.48563 29.6382 0 25.098 0C21.2563 0 17.4146 1.60071 15.3191 4.80213C13.2236 7.68342 12.898 11.8188 14.295 15.3403C15.657 18.9259 20.907 22.41 25.4472 22.41H35.7714L35.7714 6.64748ZM29.289 8.96399L32.4322 16.0071H25.4472C23.701 16.0071 22.1294 14.7265 21.2563 13.446L20.5927 11.9093C20.2435 10.6287 20.5578 9.60427 21.2563 8.3237C21.9548 7.04313 23.3518 6.40285 25.098 6.40285C26.8442 6.40285 28.5905 7.36327 29.289 8.96399Z" fill="#4D5BF9"/>
<path d="M36 53C36 54.9209 36 73 36 73H12C9.90452 73 8 70.9209 8 69L8 42C8 40.8954 8.89543 40 10 40H33L33 56L36 53ZM33 19.2085H4.49246C2.39699 19.2085 -3.57774e-09 20.5791 0 22.5L0 27L0 32C3.57774e-09 33.9209 2.39699 35 4.49246 35H33L33 27L33 19.2085ZM35.7714 6.64748C34.0252 2.48563 29.6382 0 25.098 0C21.2563 0 17.4146 1.60071 15.3191 4.80213C13.2236 7.68342 12.898 11.8188 14.295 15.3403C15.657 18.9259 20.907 22.41 25.4472 22.41H35.7714L35.7714 6.64748ZM29.289 8.96399L32.4322 16.0071H25.4472C23.701 16.0071 22.1294 14.7265 21.2563 13.446L20.5927 11.9093C20.2435 10.6287 20.5578 9.60427 21.2563 8.3237C21.9548 7.04313 23.3518 6.40285 25.098 6.40285C26.8442 6.40285 28.5905 7.36327 29.289 8.96399Z" fill="#4D5BF9"/>
</svg>
